<svg width="24" height="24" viewBox="0 0 24 24" fill="none" xmlns="http://www.w3.org/2000/svg">
<path d="M0 12C0 9.5078 0.759734 7.19304 2.06024 5.27469H10.2205C11.4324 5.27469 12.5948 5.75613 13.4517 6.61311C14.3087 7.47009 14.7902 8.6324 14.7902 9.84435C14.7902 11.0563 14.3087 12.2186 13.4517 13.0756C12.5948 13.9326 11.4324 14.414 10.2205 14.414H8.2199V14.4076C8.16069 14.4076 8.0977 14.4085 8.03817 14.414H7.98479C7.46311 14.4352 6.94817 14.5396 6.45942 14.7233V14.7297C6.45944 14.7297 6.4594 14.7297 6.45942 14.7297C5.08868 15.2419 4.14151 16.3485 4.14151 17.629V24H2.94737C1.31958 24 0 22.6804 0 21.0526V12Z" fill="url(#paint0_linear_6493_9290)"/>
<path d="M8.2199 24H12C18.6274 24 24 18.6274 24 12C24 5.37258 18.6274 0 12 0C9.83966 0 7.81265 0.570872 6.06161 1.56999H10.2253C12.4182 1.57383 14.5201 2.44697 16.0702 3.99803C17.6204 5.54908 18.4923 7.65148 18.4949 9.84435C18.4923 12.0381 17.6197 14.1412 16.0685 15.6924C14.5173 17.2436 12.4142 18.1162 10.2205 18.1187H8.2199V24Z" fill="url(#paint1_linear_6493_9290)"/>
<path d="M10.4166 11.5158C11.3062 11.5158 12.0273 10.7946 12.0273 9.90505C12.0273 9.01546 11.3062 8.29431 10.4166 8.29431C9.527 8.29431 8.80585 9.01546 8.80585 9.90505C8.80585 10.7946 9.527 11.5158 10.4166 11.5158Z" fill="white"/>
<defs>
<linearGradient id="paint0_linear_6493_9290" x1="3.85483" y1="3.61482" x2="21.3388" y2="20.5775" gradientUnits="userSpaceOnUse">
<stop stop-color="#2FD0DE"/>
<stop offset="0.51" stop-color="#7684ED"/>
<stop offset="1" stop-color="#CA24FD"/>
</linearGradient>
<linearGradient id="paint1_linear_6493_9290" x1="3.85483" y1="3.61482" x2="21.3388" y2="20.5775" gradientUnits="userSpaceOnUse">
<stop stop-color="#2FD0DE"/>
<stop offset="0.51" stop-color="#7684ED"/>
<stop offset="1" stop-color="#CA24FD"/>
</linearGradient>
</defs>
</svg>
