<svg width="240" height="52" viewBox="0 0 240 52" fill="none" xmlns="http://www.w3.org/2000/svg">
<path d="M0 26C0 20.6404 1.63383 15.6625 4.4306 11.537H21.9795C24.5858 11.537 27.0854 12.5724 28.9284 14.4153C30.7713 16.2583 31.8067 18.7579 31.8067 21.3642C31.8067 23.9705 30.7713 26.4701 28.9284 28.3131C27.0854 30.156 24.5858 31.1914 21.9795 31.1914H17.6772V31.1775C17.5498 31.1775 17.4144 31.1796 17.2863 31.1914H17.1715C16.0496 31.237 14.9423 31.4616 13.8912 31.8565V31.8703C13.8912 31.8703 13.8912 31.8703 13.8912 31.8703C10.9434 32.9718 8.90645 35.3516 8.90645 38.1054V51.8064H6.33841C2.8378 51.8064 0 48.9686 0 45.468V26Z" fill="url(#paint0_linear_11503_7381)"/>
<path d="M17.6772 51.8064H25.8064C40.0589 51.8064 51.6128 40.2525 51.6128 26C51.6128 11.7475 40.0589 0.193604 25.8064 0.193604C21.1605 0.193604 16.8014 1.42128 13.0357 3.56992H21.9899C26.7057 3.57817 31.2259 5.4559 34.5596 8.79148C37.8932 12.1271 39.7683 16.6484 39.7738 21.3642C39.7683 26.0818 37.8918 30.6047 34.5559 33.9406C31.22 37.2765 26.6971 39.153 21.9795 39.1585H17.6772V51.8064Z" fill="url(#paint1_linear_11503_7381)"/>
<path d="M22.4012 24.9588C24.3143 24.9588 25.8651 23.4079 25.8651 21.4948C25.8651 19.5817 24.3143 18.0309 22.4012 18.0309C20.4881 18.0309 18.9373 19.5817 18.9373 21.4948C18.9373 23.4079 20.4881 24.9588 22.4012 24.9588Z" fill="white"/>
<path d="M237.767 34.4695C235.661 34.4695 234.023 33.9126 232.853 32.7986C231.704 31.6636 231.13 30.0873 231.13 28.0695V21.165H228.195V17.0665H228.354C229.248 17.0665 229.928 16.8458 230.396 16.4044C230.886 15.963 231.13 15.301 231.13 14.4182V13.1571H235.916V17.0665H240V21.165H235.916V27.7542C235.916 28.3427 236.022 28.8367 236.235 29.236C236.448 29.6143 236.778 29.8981 237.224 30.0873C237.671 30.2764 238.224 30.371 238.883 30.371C239.032 30.371 239.202 30.3605 239.394 30.3395C239.585 30.3185 239.787 30.2974 240 30.2764V34.2804C239.681 34.3224 239.319 34.3645 238.915 34.4065C238.511 34.4485 238.128 34.4695 237.767 34.4695Z" fill="white"/>
<path d="M218.262 34.6587C216.411 34.6587 214.805 34.2593 213.444 33.4606C212.082 32.6409 211.03 31.548 210.285 30.1818C209.541 28.8156 209.168 27.3023 209.168 25.6419C209.168 23.9184 209.551 22.384 210.317 21.0389C211.104 19.6937 212.157 18.6323 213.476 17.8546C214.794 17.0769 216.283 16.6881 217.943 16.6881C219.325 16.6881 220.548 16.9088 221.612 17.3502C222.675 17.7705 223.569 18.3696 224.292 19.1472C225.036 19.9249 225.6 20.8287 225.983 21.8586C226.366 22.8675 226.557 23.9709 226.557 25.1689C226.557 25.5052 226.536 25.8415 226.493 26.1778C226.472 26.4931 226.419 26.7663 226.334 26.9975H213.284V23.5295H223.622L221.356 25.1689C221.569 24.2652 221.559 23.4665 221.325 22.7729C221.091 22.0583 220.676 21.5013 220.08 21.1019C219.506 20.6816 218.793 20.4714 217.943 20.4714C217.113 20.4714 216.4 20.6711 215.805 21.0704C215.209 21.4697 214.763 22.0583 214.465 22.8359C214.167 23.6136 214.05 24.5594 214.114 25.6734C214.029 26.6402 214.146 27.4915 214.465 28.2271C214.784 28.9627 215.273 29.5407 215.932 29.9611C216.592 30.3604 217.389 30.5601 218.325 30.5601C219.176 30.5601 219.899 30.392 220.495 30.0557C221.112 29.7194 221.59 29.257 221.931 28.6685L225.759 30.4655C225.419 31.3063 224.877 32.0419 224.132 32.6724C223.409 33.303 222.548 33.7969 221.548 34.1542C220.548 34.4905 219.453 34.6587 218.262 34.6587Z" fill="white"/>
<path d="M201.582 34.2803V10.4142H206.368V34.2803H201.582Z" fill="white"/>
<path d="M193.294 34.2803V10.4142H198.08V34.2803H193.294Z" fill="white"/>
<path d="M180.085 34.6587C178.83 34.6587 177.745 34.459 176.83 34.0596C175.916 33.6603 175.214 33.0928 174.724 32.3572C174.235 31.6005 173.991 30.7072 173.991 29.6773C173.991 28.7105 174.214 27.8593 174.661 27.1236C175.107 26.367 175.788 25.7364 176.703 25.232C177.639 24.7276 178.798 24.3703 180.18 24.1601L185.509 23.3088V26.7768L181.042 27.565C180.361 27.6911 179.84 27.9118 179.478 28.2271C179.117 28.5213 178.936 28.9522 178.936 29.5197C178.936 30.0452 179.138 30.455 179.542 30.7493C179.946 31.0435 180.446 31.1907 181.042 31.1907C181.829 31.1907 182.52 31.0225 183.116 30.6862C183.711 30.3499 184.169 29.898 184.488 29.3305C184.828 28.742 184.998 28.101 184.998 27.4074V22.9305C184.998 22.2789 184.732 21.7325 184.201 21.2911C183.69 20.8497 182.988 20.629 182.095 20.629C181.244 20.629 180.489 20.8602 179.829 21.3226C179.191 21.785 178.723 22.3945 178.426 23.1512L174.597 21.3541C174.937 20.3873 175.48 19.5571 176.224 18.8635C176.968 18.1699 177.862 17.6339 178.904 17.2556C179.946 16.8773 181.084 16.6881 182.318 16.6881C183.786 16.6881 185.083 16.9508 186.211 17.4763C187.338 18.0017 188.21 18.7374 188.827 19.6832C189.465 20.608 189.784 21.6904 189.784 22.9305V34.2803H185.317V31.5059L186.402 31.3168C185.892 32.0734 185.328 32.704 184.711 33.2084C184.094 33.6918 183.403 34.0491 182.637 34.2803C181.871 34.5325 181.021 34.6587 180.085 34.6587Z" fill="white"/>
<path d="M150.808 34.2803L144.81 17.0664H149.755L153.967 29.4881L152.244 29.4566L156.934 17.0664H161.082L165.74 29.4566L164.018 29.4881L168.229 17.0664H173.206L167.176 34.2803H163.028L158.179 20.9758H159.838L154.956 34.2803H150.808Z" fill="white"/>
<path d="M137.926 34.2803V17.0664H142.712V34.2803H137.926ZM137.926 15.5216V10.7925H142.712V15.5216H137.926Z" fill="white"/>
<path d="M116.458 40.5858V17.0664H120.925V20.3453L120.51 19.3995C121.084 18.5377 121.861 17.8756 122.839 17.4132C123.839 16.9298 124.977 16.6881 126.253 16.6881C127.912 16.6881 129.412 17.0875 130.752 17.8861C132.092 18.6848 133.155 19.7673 133.942 21.1335C134.729 22.4786 135.123 23.9919 135.123 25.6734C135.123 27.3338 134.729 28.8471 133.942 30.2133C133.177 31.5795 132.124 32.6619 130.784 33.4606C129.444 34.2593 127.923 34.6587 126.221 34.6587C125.03 34.6587 123.924 34.4485 122.903 34.0281C121.903 33.5867 121.095 32.9457 120.478 32.1049L121.244 31.1276V40.5858H116.458ZM125.647 30.4025C126.54 30.4025 127.327 30.2028 128.008 29.8035C128.688 29.4041 129.22 28.8471 129.603 28.1325C129.986 27.4179 130.177 26.5982 130.177 25.6734C130.177 24.7486 129.986 23.9394 129.603 23.2458C129.22 22.5312 128.688 21.9742 128.008 21.5748C127.327 21.1545 126.54 20.9443 125.647 20.9443C124.796 20.9443 124.03 21.144 123.349 21.5433C122.69 21.9427 122.169 22.4996 121.786 23.2143C121.424 23.9289 121.244 24.7486 121.244 25.6734C121.244 26.5982 121.424 27.4179 121.786 28.1325C122.169 28.8471 122.69 29.4041 123.349 29.8035C124.03 30.2028 124.796 30.4025 125.647 30.4025Z" fill="white"/>
<path d="M94.9897 40.5858V17.0664H99.4566V20.3453L99.0418 19.3995C99.6161 18.5377 100.393 17.8756 101.371 17.4132C102.371 16.9298 103.509 16.6881 104.785 16.6881C106.444 16.6881 107.944 17.0875 109.284 17.8861C110.624 18.6848 111.687 19.7673 112.474 21.1335C113.261 22.4786 113.655 23.9919 113.655 25.6734C113.655 27.3338 113.261 28.8471 112.474 30.2133C111.709 31.5795 110.656 32.6619 109.316 33.4606C107.976 34.2593 106.455 34.6587 104.753 34.6587C103.562 34.6587 102.456 34.4485 101.435 34.0281C100.435 33.5867 99.6268 32.9457 99.0099 32.1049L99.7757 31.1276V40.5858H94.9897ZM104.179 30.4025C105.072 30.4025 105.859 30.2028 106.54 29.8035C107.22 29.4041 107.752 28.8471 108.135 28.1325C108.518 27.4179 108.709 26.5982 108.709 25.6734C108.709 24.7486 108.518 23.9394 108.135 23.2458C107.752 22.5312 107.22 21.9742 106.54 21.5748C105.859 21.1545 105.072 20.9443 104.179 20.9443C103.328 20.9443 102.562 21.144 101.881 21.5433C101.222 21.9427 100.701 22.4996 100.318 23.2143C99.9565 23.9289 99.7757 24.7486 99.7757 25.6734C99.7757 26.5982 99.9565 27.4179 100.318 28.1325C100.701 28.8471 101.222 29.4041 101.881 29.8035C102.562 30.2028 103.328 30.4025 104.179 30.4025Z" fill="white"/>
<path d="M79.2303 34.6587C77.4436 34.6587 75.7845 34.3539 74.253 33.7444C72.7215 33.1348 71.3814 32.2836 70.2328 31.1907C69.1055 30.0767 68.2227 28.7841 67.5846 27.3128C66.9465 25.8415 66.6274 24.2441 66.6274 22.5207C66.6274 20.7972 66.9359 19.1998 67.5527 17.7285C68.1908 16.2572 69.0736 14.9751 70.2009 13.8822C71.3495 12.7892 72.6896 11.938 74.2211 11.3285C75.7526 10.7189 77.4223 10.4142 79.2303 10.4142C81.0384 10.4142 82.7081 10.7189 84.2396 11.3285C85.7711 11.938 87.1005 12.7892 88.2279 13.8822C89.3765 14.9751 90.2592 16.2572 90.8761 17.7285C91.5142 19.1998 91.8332 20.7972 91.8332 22.5207C91.8332 24.2441 91.5142 25.8415 90.8761 27.3128C90.2379 28.7841 89.3446 30.0767 88.1959 31.1907C87.0686 32.2836 85.7392 33.1348 84.2077 33.7444C82.6762 34.3539 81.0171 34.6587 79.2303 34.6587ZM79.2303 30.2448C80.3151 30.2448 81.3149 30.0557 82.2295 29.6773C83.1654 29.299 83.9843 28.7736 84.6863 28.101C85.3882 27.4074 85.9306 26.5877 86.3135 25.6419C86.6964 24.696 86.8878 23.6556 86.8878 22.5207C86.8878 21.3857 86.6964 20.3558 86.3135 19.431C85.9306 18.4852 85.3882 17.6655 84.6863 16.9719C83.9843 16.2783 83.1654 15.7528 82.2295 15.3955C81.3149 15.0172 80.3151 14.828 79.2303 14.828C78.1455 14.828 77.1352 15.0172 76.1993 15.3955C75.2846 15.7528 74.4763 16.2783 73.7744 16.9719C73.0725 17.6655 72.5301 18.4852 72.1472 19.431C71.7643 20.3558 71.5729 21.3857 71.5729 22.5207C71.5729 23.6556 71.7643 24.696 72.1472 25.6419C72.5301 26.5877 73.0725 27.4074 73.7744 28.101C74.4763 28.7736 75.2846 29.299 76.1993 29.6773C77.1352 30.0557 78.1455 30.2448 79.2303 30.2448Z" fill="white"/>
<path d="M0 26C0 20.6404 1.63383 15.6625 4.4306 11.537H21.9795C24.5858 11.537 27.0854 12.5724 28.9284 14.4153C30.7713 16.2583 31.8067 18.7579 31.8067 21.3642C31.8067 23.9705 30.7713 26.4701 28.9284 28.3131C27.0854 30.156 24.5858 31.1914 21.9795 31.1914H17.6772V31.1775C17.5498 31.1775 17.4144 31.1796 17.2863 31.1914H17.1715C16.0496 31.237 14.9423 31.4616 13.8912 31.8565V31.8703C13.8912 31.8703 13.8912 31.8703 13.8912 31.8703C10.9434 32.9718 8.90645 35.3516 8.90645 38.1054V51.8064H6.33841C2.8378 51.8064 0 48.9686 0 45.468V26Z" fill="url(#paint2_linear_11503_7381)"/>
<path d="M17.6772 51.8064H25.8064C40.0589 51.8064 51.6128 40.2525 51.6128 26C51.6128 11.7475 40.0589 0.193604 25.8064 0.193604C21.1605 0.193604 16.8014 1.42128 13.0357 3.56992H21.9899C26.7057 3.57817 31.2259 5.4559 34.5596 8.79148C37.8932 12.1271 39.7683 16.6484 39.7738 21.3642C39.7683 26.0818 37.8918 30.6047 34.5559 33.9406C31.22 37.2765 26.6971 39.153 21.9795 39.1585H17.6772V51.8064Z" fill="url(#paint3_linear_11503_7381)"/>
<path d="M22.4012 24.9588C24.3143 24.9588 25.8651 23.4079 25.8651 21.4948C25.8651 19.5817 24.3143 18.0309 22.4012 18.0309C20.4881 18.0309 18.9373 19.5817 18.9373 21.4948C18.9373 23.4079 20.4881 24.9588 22.4012 24.9588Z" fill="white"/>
<path d="M237.767 34.4695C235.661 34.4695 234.023 33.9126 232.853 32.7986C231.704 31.6636 231.13 30.0873 231.13 28.0695V21.165H228.195V17.0665H228.354C229.248 17.0665 229.928 16.8458 230.396 16.4044C230.886 15.963 231.13 15.301 231.13 14.4182V13.1571H235.916V17.0665H240V21.165H235.916V27.7542C235.916 28.3427 236.022 28.8367 236.235 29.236C236.448 29.6143 236.778 29.8981 237.224 30.0873C237.671 30.2764 238.224 30.371 238.883 30.371C239.032 30.371 239.202 30.3605 239.394 30.3395C239.585 30.3185 239.787 30.2974 240 30.2764V34.2804C239.681 34.3224 239.319 34.3645 238.915 34.4065C238.511 34.4485 238.128 34.4695 237.767 34.4695Z" fill="white"/>
<path d="M218.262 34.6587C216.411 34.6587 214.805 34.2593 213.444 33.4606C212.082 32.6409 211.03 31.548 210.285 30.1818C209.541 28.8156 209.168 27.3023 209.168 25.6419C209.168 23.9184 209.551 22.384 210.317 21.0389C211.104 19.6937 212.157 18.6323 213.476 17.8546C214.794 17.0769 216.283 16.6881 217.943 16.6881C219.325 16.6881 220.548 16.9088 221.612 17.3502C222.675 17.7705 223.569 18.3696 224.292 19.1472C225.036 19.9249 225.6 20.8287 225.983 21.8586C226.366 22.8675 226.557 23.9709 226.557 25.1689C226.557 25.5052 226.536 25.8415 226.493 26.1778C226.472 26.4931 226.419 26.7663 226.334 26.9975H213.284V23.5295H223.622L221.356 25.1689C221.569 24.2652 221.559 23.4665 221.325 22.7729C221.091 22.0583 220.676 21.5013 220.08 21.1019C219.506 20.6816 218.793 20.4714 217.943 20.4714C217.113 20.4714 216.4 20.6711 215.805 21.0704C215.209 21.4697 214.763 22.0583 214.465 22.8359C214.167 23.6136 214.05 24.5594 214.114 25.6734C214.029 26.6402 214.146 27.4915 214.465 28.2271C214.784 28.9627 215.273 29.5407 215.932 29.9611C216.592 30.3604 217.389 30.5601 218.325 30.5601C219.176 30.5601 219.899 30.392 220.495 30.0557C221.112 29.7194 221.59 29.257 221.931 28.6685L225.759 30.4655C225.419 31.3063 224.877 32.0419 224.132 32.6724C223.409 33.303 222.548 33.7969 221.548 34.1542C220.548 34.4905 219.453 34.6587 218.262 34.6587Z" fill="white"/>
<path d="M201.582 34.2803V10.4142H206.368V34.2803H201.582Z" fill="white"/>
<path d="M193.294 34.2803V10.4142H198.08V34.2803H193.294Z" fill="white"/>
<path d="M180.085 34.6587C178.83 34.6587 177.745 34.459 176.83 34.0596C175.916 33.6603 175.214 33.0928 174.724 32.3572C174.235 31.6005 173.991 30.7072 173.991 29.6773C173.991 28.7105 174.214 27.8593 174.661 27.1236C175.107 26.367 175.788 25.7364 176.703 25.232C177.639 24.7276 178.798 24.3703 180.18 24.1601L185.509 23.3088V26.7768L181.042 27.565C180.361 27.6911 179.84 27.9118 179.478 28.2271C179.117 28.5213 178.936 28.9522 178.936 29.5197C178.936 30.0452 179.138 30.455 179.542 30.7493C179.946 31.0435 180.446 31.1907 181.042 31.1907C181.829 31.1907 182.52 31.0225 183.116 30.6862C183.711 30.3499 184.169 29.898 184.488 29.3305C184.828 28.742 184.998 28.101 184.998 27.4074V22.9305C184.998 22.2789 184.732 21.7325 184.201 21.2911C183.69 20.8497 182.988 20.629 182.095 20.629C181.244 20.629 180.489 20.8602 179.829 21.3226C179.191 21.785 178.723 22.3945 178.426 23.1512L174.597 21.3541C174.937 20.3873 175.48 19.5571 176.224 18.8635C176.968 18.1699 177.862 17.6339 178.904 17.2556C179.946 16.8773 181.084 16.6881 182.318 16.6881C183.786 16.6881 185.083 16.9508 186.211 17.4763C187.338 18.0017 188.21 18.7374 188.827 19.6832C189.465 20.608 189.784 21.6904 189.784 22.9305V34.2803H185.317V31.5059L186.402 31.3168C185.892 32.0734 185.328 32.704 184.711 33.2084C184.094 33.6918 183.403 34.0491 182.637 34.2803C181.871 34.5325 181.021 34.6587 180.085 34.6587Z" fill="white"/>
<path d="M150.808 34.2803L144.81 17.0664H149.755L153.967 29.4881L152.244 29.4566L156.934 17.0664H161.082L165.74 29.4566L164.018 29.4881L168.229 17.0664H173.206L167.176 34.2803H163.028L158.179 20.9758H159.838L154.956 34.2803H150.808Z" fill="white"/>
<path d="M137.926 34.2803V17.0664H142.712V34.2803H137.926ZM137.926 15.5216V10.7925H142.712V15.5216H137.926Z" fill="white"/>
<path d="M116.458 40.5858V17.0664H120.925V20.3453L120.51 19.3995C121.084 18.5377 121.861 17.8756 122.839 17.4132C123.839 16.9298 124.977 16.6881 126.253 16.6881C127.912 16.6881 129.412 17.0875 130.752 17.8861C132.092 18.6848 133.155 19.7673 133.942 21.1335C134.729 22.4786 135.123 23.9919 135.123 25.6734C135.123 27.3338 134.729 28.8471 133.942 30.2133C133.177 31.5795 132.124 32.6619 130.784 33.4606C129.444 34.2593 127.923 34.6587 126.221 34.6587C125.03 34.6587 123.924 34.4485 122.903 34.0281C121.903 33.5867 121.095 32.9457 120.478 32.1049L121.244 31.1276V40.5858H116.458ZM125.647 30.4025C126.54 30.4025 127.327 30.2028 128.008 29.8035C128.688 29.4041 129.22 28.8471 129.603 28.1325C129.986 27.4179 130.177 26.5982 130.177 25.6734C130.177 24.7486 129.986 23.9394 129.603 23.2458C129.22 22.5312 128.688 21.9742 128.008 21.5748C127.327 21.1545 126.54 20.9443 125.647 20.9443C124.796 20.9443 124.03 21.144 123.349 21.5433C122.69 21.9427 122.169 22.4996 121.786 23.2143C121.424 23.9289 121.244 24.7486 121.244 25.6734C121.244 26.5982 121.424 27.4179 121.786 28.1325C122.169 28.8471 122.69 29.4041 123.349 29.8035C124.03 30.2028 124.796 30.4025 125.647 30.4025Z" fill="white"/>
<path d="M94.9897 40.5858V17.0664H99.4566V20.3453L99.0418 19.3995C99.6161 18.5377 100.393 17.8756 101.371 17.4132C102.371 16.9298 103.509 16.6881 104.785 16.6881C106.444 16.6881 107.944 17.0875 109.284 17.8861C110.624 18.6848 111.687 19.7673 112.474 21.1335C113.261 22.4786 113.655 23.9919 113.655 25.6734C113.655 27.3338 113.261 28.8471 112.474 30.2133C111.709 31.5795 110.656 32.6619 109.316 33.4606C107.976 34.2593 106.455 34.6587 104.753 34.6587C103.562 34.6587 102.456 34.4485 101.435 34.0281C100.435 33.5867 99.6268 32.9457 99.0099 32.1049L99.7757 31.1276V40.5858H94.9897ZM104.179 30.4025C105.072 30.4025 105.859 30.2028 106.54 29.8035C107.22 29.4041 107.752 28.8471 108.135 28.1325C108.518 27.4179 108.709 26.5982 108.709 25.6734C108.709 24.7486 108.518 23.9394 108.135 23.2458C107.752 22.5312 107.22 21.9742 106.54 21.5748C105.859 21.1545 105.072 20.9443 104.179 20.9443C103.328 20.9443 102.562 21.144 101.881 21.5433C101.222 21.9427 100.701 22.4996 100.318 23.2143C99.9565 23.9289 99.7757 24.7486 99.7757 25.6734C99.7757 26.5982 99.9565 27.4179 100.318 28.1325C100.701 28.8471 101.222 29.4041 101.881 29.8035C102.562 30.2028 103.328 30.4025 104.179 30.4025Z" fill="white"/>
<path d="M79.2303 34.6587C77.4436 34.6587 75.7845 34.3539 74.253 33.7444C72.7215 33.1348 71.3814 32.2836 70.2328 31.1907C69.1055 30.0767 68.2227 28.7841 67.5846 27.3128C66.9465 25.8415 66.6274 24.2441 66.6274 22.5207C66.6274 20.7972 66.9359 19.1998 67.5527 17.7285C68.1908 16.2572 69.0736 14.9751 70.2009 13.8822C71.3495 12.7892 72.6896 11.938 74.2211 11.3285C75.7526 10.7189 77.4223 10.4142 79.2303 10.4142C81.0384 10.4142 82.7081 10.7189 84.2396 11.3285C85.7711 11.938 87.1005 12.7892 88.2279 13.8822C89.3765 14.9751 90.2592 16.2572 90.8761 17.7285C91.5142 19.1998 91.8332 20.7972 91.8332 22.5207C91.8332 24.2441 91.5142 25.8415 90.8761 27.3128C90.2379 28.7841 89.3446 30.0767 88.1959 31.1907C87.0686 32.2836 85.7392 33.1348 84.2077 33.7444C82.6762 34.3539 81.0171 34.6587 79.2303 34.6587ZM79.2303 30.2448C80.3151 30.2448 81.3149 30.0557 82.2295 29.6773C83.1654 29.299 83.9843 28.7736 84.6863 28.101C85.3882 27.4074 85.9306 26.5877 86.3135 25.6419C86.6964 24.696 86.8878 23.6556 86.8878 22.5207C86.8878 21.3857 86.6964 20.3558 86.3135 19.431C85.9306 18.4852 85.3882 17.6655 84.6863 16.9719C83.9843 16.2783 83.1654 15.7528 82.2295 15.3955C81.3149 15.0172 80.3151 14.828 79.2303 14.828C78.1455 14.828 77.1352 15.0172 76.1993 15.3955C75.2846 15.7528 74.4763 16.2783 73.7744 16.9719C73.0725 17.6655 72.5301 18.4852 72.1472 19.431C71.7643 20.3558 71.5729 21.3857 71.5729 22.5207C71.5729 23.6556 71.7643 24.696 72.1472 25.6419C72.5301 26.5877 73.0725 27.4074 73.7744 28.101C74.4763 28.7736 75.2846 29.299 76.1993 29.6773C77.1352 30.0557 78.1455 30.2448 79.2303 30.2448Z" fill="white"/>
<defs>
<linearGradient id="paint0_linear_11503_7381" x1="8.28993" y1="7.96739" x2="45.8899" y2="44.4461" gradientUnits="userSpaceOnUse">
<stop stop-color="#2FD0DE"/>
<stop offset="0.51" stop-color="#7684ED"/>
<stop offset="1" stop-color="#CA24FD"/>
</linearGradient>
<linearGradient id="paint1_linear_11503_7381" x1="8.28993" y1="7.96739" x2="45.8899" y2="44.4461" gradientUnits="userSpaceOnUse">
<stop stop-color="#2FD0DE"/>
<stop offset="0.51" stop-color="#7684ED"/>
<stop offset="1" stop-color="#CA24FD"/>
</linearGradient>
<linearGradient id="paint2_linear_11503_7381" x1="8.28993" y1="7.96739" x2="45.8899" y2="44.4461" gradientUnits="userSpaceOnUse">
<stop stop-color="#2FD0DE"/>
<stop offset="0.51" stop-color="#7684ED"/>
<stop offset="1" stop-color="#CA24FD"/>
</linearGradient>
<linearGradient id="paint3_linear_11503_7381" x1="8.28993" y1="7.96739" x2="45.8899" y2="44.4461" gradientUnits="userSpaceOnUse">
<stop stop-color="#2FD0DE"/>
<stop offset="0.51" stop-color="#7684ED"/>
<stop offset="1" stop-color="#CA24FD"/>
</linearGradient>
</defs>
</svg>
