<svg width="241" height="52" viewBox="0 0 241 52" fill="none" xmlns="http://www.w3.org/2000/svg">
<path d="M0.749268 26C0.749268 20.6404 2.3831 15.6625 5.17987 11.537H22.7288C25.3351 11.537 27.8347 12.5724 29.6776 14.4153C31.5206 16.2583 32.556 18.7579 32.556 21.3642C32.556 23.9705 31.5206 26.4701 29.6776 28.3131C27.8347 30.156 25.3351 31.1914 22.7288 31.1914H18.4264V31.1775C18.2991 31.1775 18.1636 31.1796 18.0356 31.1914H17.9208C16.7989 31.237 15.6915 31.4616 14.6405 31.8565V31.8703C14.6405 31.8703 14.6404 31.8703 14.6405 31.8703C11.6926 32.9718 9.65572 35.3516 9.65572 38.1054V51.8064H7.08768C3.58707 51.8064 0.749268 48.9686 0.749268 45.468V26Z" fill="url(#paint0_linear_11503_7380)"/>
<path d="M18.4264 51.8064H26.5556C40.8081 51.8064 52.362 40.2525 52.362 26C52.362 11.7475 40.8081 0.193604 26.5556 0.193604C21.9098 0.193604 17.5506 1.42128 13.7849 3.56992H22.7392C27.455 3.57817 31.9752 5.4559 35.3088 8.79148C38.6425 12.1271 40.5175 16.6484 40.523 21.3642C40.5175 26.0818 38.641 30.6047 35.3051 33.9406C31.9693 37.2765 27.4464 39.153 22.7288 39.1585H18.4264V51.8064Z" fill="url(#paint1_linear_11503_7380)"/>
<path d="M23.1505 24.9588C25.0636 24.9588 26.6144 23.4079 26.6144 21.4948C26.6144 19.5817 25.0636 18.0309 23.1505 18.0309C21.2374 18.0309 19.6865 19.5817 19.6865 21.4948C19.6865 23.4079 21.2374 24.9588 23.1505 24.9588Z" fill="white"/>
<path d="M238.516 34.4695C236.41 34.4695 234.772 33.9126 233.602 32.7986C232.454 31.6636 231.879 30.0873 231.879 28.0695V21.165H228.944V17.0665H229.104C229.997 17.0665 230.678 16.8458 231.146 16.4044C231.635 15.963 231.879 15.301 231.879 14.4182V13.1571H236.665V17.0665H240.749V21.165H236.665V27.7542C236.665 28.3427 236.772 28.8367 236.984 29.236C237.197 29.6143 237.527 29.8981 237.974 30.0873C238.42 30.2764 238.973 30.371 239.633 30.371C239.782 30.371 239.952 30.3605 240.143 30.3395C240.335 30.3185 240.537 30.2974 240.749 30.2764V34.2804C240.43 34.3224 240.069 34.3645 239.665 34.4065C239.26 34.4485 238.878 34.4695 238.516 34.4695Z" fill="#02224A"/>
<path d="M219.011 34.6587C217.16 34.6587 215.554 34.2593 214.193 33.4606C212.832 32.6409 211.779 31.548 211.034 30.1818C210.29 28.8156 209.918 27.3023 209.918 25.6419C209.918 23.9184 210.3 22.384 211.066 21.0389C211.853 19.6937 212.906 18.6323 214.225 17.8546C215.544 17.0769 217.033 16.6881 218.692 16.6881C220.074 16.6881 221.297 16.9088 222.361 17.3502C223.425 17.7705 224.318 18.3696 225.041 19.1472C225.786 19.9249 226.349 20.8287 226.732 21.8586C227.115 22.8675 227.306 23.9709 227.306 25.1689C227.306 25.5052 227.285 25.8415 227.243 26.1778C227.221 26.4931 227.168 26.7663 227.083 26.9975H214.033V23.5295H224.371L222.106 25.1689C222.318 24.2652 222.308 23.4665 222.074 22.7729C221.84 22.0583 221.425 21.5013 220.829 21.1019C220.255 20.6816 219.543 20.4714 218.692 20.4714C217.862 20.4714 217.15 20.6711 216.554 21.0704C215.958 21.4697 215.512 22.0583 215.214 22.8359C214.916 23.6136 214.799 24.5594 214.863 25.6734C214.778 26.6402 214.895 27.4915 215.214 28.2271C215.533 28.9627 216.022 29.5407 216.682 29.9611C217.341 30.3604 218.139 30.5601 219.075 30.5601C219.925 30.5601 220.649 30.392 221.244 30.0557C221.861 29.7194 222.34 29.257 222.68 28.6685L226.509 30.4655C226.168 31.3063 225.626 32.0419 224.882 32.6724C224.158 33.303 223.297 33.7969 222.297 34.1542C221.297 34.4905 220.202 34.6587 219.011 34.6587Z" fill="#02224A"/>
<path d="M202.331 34.2803V10.4142H207.117V34.2803H202.331Z" fill="#02224A"/>
<path d="M194.043 34.2803V10.4142H198.829V34.2803H194.043Z" fill="#02224A"/>
<path d="M180.834 34.6587C179.579 34.6587 178.494 34.459 177.58 34.0596C176.665 33.6603 175.963 33.0928 175.474 32.3572C174.984 31.6005 174.74 30.7072 174.74 29.6773C174.74 28.7105 174.963 27.8593 175.41 27.1236C175.857 26.367 176.537 25.7364 177.452 25.232C178.388 24.7276 179.547 24.3703 180.93 24.1601L186.258 23.3088V26.7768L181.791 27.565C181.11 27.6911 180.589 27.9118 180.228 28.2271C179.866 28.5213 179.685 28.9522 179.685 29.5197C179.685 30.0452 179.887 30.455 180.292 30.7493C180.696 31.0435 181.196 31.1907 181.791 31.1907C182.578 31.1907 183.269 31.0225 183.865 30.6862C184.461 30.3499 184.918 29.898 185.237 29.3305C185.577 28.742 185.747 28.101 185.747 27.4074V22.9305C185.747 22.2789 185.482 21.7325 184.95 21.2911C184.439 20.8497 183.737 20.629 182.844 20.629C181.993 20.629 181.238 20.8602 180.579 21.3226C179.941 21.785 179.473 22.3945 179.175 23.1512L175.346 21.3541C175.686 20.3873 176.229 19.5571 176.973 18.8635C177.718 18.1699 178.611 17.6339 179.653 17.2556C180.696 16.8773 181.834 16.6881 183.067 16.6881C184.535 16.6881 185.833 16.9508 186.96 17.4763C188.087 18.0017 188.959 18.7374 189.576 19.6832C190.214 20.608 190.533 21.6904 190.533 22.9305V34.2803H186.067V31.5059L187.151 31.3168C186.641 32.0734 186.077 32.704 185.46 33.2084C184.843 33.6918 184.152 34.0491 183.386 34.2803C182.621 34.5325 181.77 34.6587 180.834 34.6587Z" fill="#02224A"/>
<path d="M151.558 34.2803L145.559 17.0664H150.505L154.716 29.4881L152.993 29.4566L157.684 17.0664H161.831L166.49 29.4566L164.767 29.4881L168.978 17.0664H173.956L167.925 34.2803H163.778L158.928 20.9758H160.587L155.705 34.2803H151.558Z" fill="#02224A"/>
<path d="M138.675 34.2803V17.0664H143.461V34.2803H138.675ZM138.675 15.5216V10.7925H143.461V15.5216H138.675Z" fill="#02224A"/>
<path d="M117.207 40.5858V17.0664H121.674V20.3453L121.259 19.3995C121.833 18.5377 122.61 17.8756 123.588 17.4132C124.588 16.9298 125.726 16.6881 127.002 16.6881C128.661 16.6881 130.161 17.0875 131.501 17.8861C132.841 18.6848 133.905 19.7673 134.692 21.1335C135.479 22.4786 135.872 23.9919 135.872 25.6734C135.872 27.3338 135.479 28.8471 134.692 30.2133C133.926 31.5795 132.873 32.6619 131.533 33.4606C130.193 34.2593 128.672 34.6587 126.97 34.6587C125.779 34.6587 124.673 34.4485 123.652 34.0281C122.652 33.5867 121.844 32.9457 121.227 32.1049L121.993 31.1276V40.5858H117.207ZM126.396 30.4025C127.289 30.4025 128.076 30.2028 128.757 29.8035C129.438 29.4041 129.969 28.8471 130.352 28.1325C130.735 27.4179 130.927 26.5982 130.927 25.6734C130.927 24.7486 130.735 23.9394 130.352 23.2458C129.969 22.5312 129.438 21.9742 128.757 21.5748C128.076 21.1545 127.289 20.9443 126.396 20.9443C125.545 20.9443 124.779 21.144 124.099 21.5433C123.439 21.9427 122.918 22.4996 122.535 23.2143C122.174 23.9289 121.993 24.7486 121.993 25.6734C121.993 26.5982 122.174 27.4179 122.535 28.1325C122.918 28.8471 123.439 29.4041 124.099 29.8035C124.779 30.2028 125.545 30.4025 126.396 30.4025Z" fill="#02224A"/>
<path d="M95.739 40.5858V17.0664H100.206V20.3453L99.7911 19.3995C100.365 18.5377 101.142 17.8756 102.12 17.4132C103.12 16.9298 104.258 16.6881 105.534 16.6881C107.193 16.6881 108.693 17.0875 110.033 17.8861C111.373 18.6848 112.437 19.7673 113.224 21.1335C114.011 22.4786 114.404 23.9919 114.404 25.6734C114.404 27.3338 114.011 28.8471 113.224 30.2133C112.458 31.5795 111.405 32.6619 110.065 33.4606C108.725 34.2593 107.204 34.6587 105.502 34.6587C104.311 34.6587 103.205 34.4485 102.184 34.0281C101.184 33.5867 100.376 32.9457 99.7592 32.1049L100.525 31.1276V40.5858H95.739ZM104.928 30.4025C105.821 30.4025 106.608 30.2028 107.289 29.8035C107.97 29.4041 108.501 28.8471 108.884 28.1325C109.267 27.4179 109.459 26.5982 109.459 25.6734C109.459 24.7486 109.267 23.9394 108.884 23.2458C108.501 22.5312 107.97 21.9742 107.289 21.5748C106.608 21.1545 105.821 20.9443 104.928 20.9443C104.077 20.9443 103.311 21.144 102.631 21.5433C101.971 21.9427 101.45 22.4996 101.067 23.2143C100.706 23.9289 100.525 24.7486 100.525 25.6734C100.525 26.5982 100.706 27.4179 101.067 28.1325C101.45 28.8471 101.971 29.4041 102.631 29.8035C103.311 30.2028 104.077 30.4025 104.928 30.4025Z" fill="#02224A"/>
<path d="M79.9796 34.6587C78.1929 34.6587 76.5338 34.3539 75.0023 33.7444C73.4708 33.1348 72.1307 32.2836 70.9821 31.1907C69.8547 30.0767 68.972 28.7841 68.3339 27.3128C67.6958 25.8415 67.3767 24.2441 67.3767 22.5207C67.3767 20.7972 67.6851 19.1998 68.302 17.7285C68.9401 16.2572 69.8228 14.9751 70.9502 13.8822C72.0988 12.7892 73.4389 11.938 74.9704 11.3285C76.5018 10.7189 78.1716 10.4142 79.9796 10.4142C81.7876 10.4142 83.4574 10.7189 84.9889 11.3285C86.5204 11.938 87.8498 12.7892 88.9771 13.8822C90.1257 14.9751 91.0085 16.2572 91.6253 17.7285C92.2634 19.1998 92.5825 20.7972 92.5825 22.5207C92.5825 24.2441 92.2634 25.8415 91.6253 27.3128C90.9872 28.7841 90.0938 30.0767 88.9452 31.1907C87.8179 32.2836 86.4884 33.1348 84.957 33.7444C83.4255 34.3539 81.7663 34.6587 79.9796 34.6587ZM79.9796 30.2448C81.0644 30.2448 82.0641 30.0557 82.9788 29.6773C83.9147 29.299 84.7336 28.7736 85.4355 28.101C86.1375 27.4074 86.6799 26.5877 87.0628 25.6419C87.4456 24.696 87.6371 23.6556 87.6371 22.5207C87.6371 21.3857 87.4456 20.3558 87.0628 19.431C86.6799 18.4852 86.1375 17.6655 85.4355 16.9719C84.7336 16.2783 83.9147 15.7528 82.9788 15.3955C82.0641 15.0172 81.0644 14.828 79.9796 14.828C78.8948 14.828 77.8844 15.0172 76.9485 15.3955C76.0339 15.7528 75.2256 16.2783 74.5237 16.9719C73.8217 17.6655 73.2793 18.4852 72.8965 19.431C72.5136 20.3558 72.3222 21.3857 72.3222 22.5207C72.3222 23.6556 72.5136 24.696 72.8965 25.6419C73.2793 26.5877 73.8217 27.4074 74.5237 28.101C75.2256 28.7736 76.0339 29.299 76.9485 29.6773C77.8844 30.0557 78.8948 30.2448 79.9796 30.2448Z" fill="#02224A"/>
<path d="M0.749268 26C0.749268 20.6404 2.3831 15.6625 5.17987 11.537H22.7288C25.3351 11.537 27.8347 12.5724 29.6776 14.4153C31.5206 16.2583 32.556 18.7579 32.556 21.3642C32.556 23.9705 31.5206 26.4701 29.6776 28.3131C27.8347 30.156 25.3351 31.1914 22.7288 31.1914H18.4264V31.1775C18.2991 31.1775 18.1636 31.1796 18.0356 31.1914H17.9208C16.7989 31.237 15.6915 31.4616 14.6405 31.8565V31.8703C14.6405 31.8703 14.6404 31.8703 14.6405 31.8703C11.6926 32.9718 9.65572 35.3516 9.65572 38.1054V51.8064H7.08768C3.58707 51.8064 0.749268 48.9686 0.749268 45.468V26Z" fill="url(#paint2_linear_11503_7380)"/>
<path d="M18.4264 51.8064H26.5556C40.8081 51.8064 52.362 40.2525 52.362 26C52.362 11.7475 40.8081 0.193604 26.5556 0.193604C21.9098 0.193604 17.5506 1.42128 13.7849 3.56992H22.7392C27.455 3.57817 31.9752 5.4559 35.3088 8.79148C38.6425 12.1271 40.5175 16.6484 40.523 21.3642C40.5175 26.0818 38.641 30.6047 35.3051 33.9406C31.9693 37.2765 27.4464 39.153 22.7288 39.1585H18.4264V51.8064Z" fill="url(#paint3_linear_11503_7380)"/>
<path d="M23.1505 24.9588C25.0636 24.9588 26.6144 23.4079 26.6144 21.4948C26.6144 19.5817 25.0636 18.0309 23.1505 18.0309C21.2374 18.0309 19.6865 19.5817 19.6865 21.4948C19.6865 23.4079 21.2374 24.9588 23.1505 24.9588Z" fill="white"/>
<path d="M238.516 34.4695C236.41 34.4695 234.772 33.9126 233.602 32.7986C232.454 31.6636 231.879 30.0873 231.879 28.0695V21.165H228.944V17.0665H229.104C229.997 17.0665 230.678 16.8458 231.146 16.4044C231.635 15.963 231.879 15.301 231.879 14.4182V13.1571H236.665V17.0665H240.749V21.165H236.665V27.7542C236.665 28.3427 236.772 28.8367 236.984 29.236C237.197 29.6143 237.527 29.8981 237.974 30.0873C238.42 30.2764 238.973 30.371 239.633 30.371C239.782 30.371 239.952 30.3605 240.143 30.3395C240.335 30.3185 240.537 30.2974 240.749 30.2764V34.2804C240.43 34.3224 240.069 34.3645 239.665 34.4065C239.26 34.4485 238.878 34.4695 238.516 34.4695Z" fill="#02224A"/>
<path d="M219.011 34.6587C217.16 34.6587 215.554 34.2593 214.193 33.4606C212.832 32.6409 211.779 31.548 211.034 30.1818C210.29 28.8156 209.918 27.3023 209.918 25.6419C209.918 23.9184 210.3 22.384 211.066 21.0389C211.853 19.6937 212.906 18.6323 214.225 17.8546C215.544 17.0769 217.033 16.6881 218.692 16.6881C220.074 16.6881 221.297 16.9088 222.361 17.3502C223.425 17.7705 224.318 18.3696 225.041 19.1472C225.786 19.9249 226.349 20.8287 226.732 21.8586C227.115 22.8675 227.306 23.9709 227.306 25.1689C227.306 25.5052 227.285 25.8415 227.243 26.1778C227.221 26.4931 227.168 26.7663 227.083 26.9975H214.033V23.5295H224.371L222.106 25.1689C222.318 24.2652 222.308 23.4665 222.074 22.7729C221.84 22.0583 221.425 21.5013 220.829 21.1019C220.255 20.6816 219.543 20.4714 218.692 20.4714C217.862 20.4714 217.15 20.6711 216.554 21.0704C215.958 21.4697 215.512 22.0583 215.214 22.8359C214.916 23.6136 214.799 24.5594 214.863 25.6734C214.778 26.6402 214.895 27.4915 215.214 28.2271C215.533 28.9627 216.022 29.5407 216.682 29.9611C217.341 30.3604 218.139 30.5601 219.075 30.5601C219.925 30.5601 220.649 30.392 221.244 30.0557C221.861 29.7194 222.34 29.257 222.68 28.6685L226.509 30.4655C226.168 31.3063 225.626 32.0419 224.882 32.6724C224.158 33.303 223.297 33.7969 222.297 34.1542C221.297 34.4905 220.202 34.6587 219.011 34.6587Z" fill="#02224A"/>
<path d="M202.331 34.2803V10.4142H207.117V34.2803H202.331Z" fill="#02224A"/>
<path d="M194.043 34.2803V10.4142H198.829V34.2803H194.043Z" fill="#02224A"/>
<path d="M180.834 34.6587C179.579 34.6587 178.494 34.459 177.58 34.0596C176.665 33.6603 175.963 33.0928 175.474 32.3572C174.984 31.6005 174.74 30.7072 174.74 29.6773C174.74 28.7105 174.963 27.8593 175.41 27.1236C175.857 26.367 176.537 25.7364 177.452 25.232C178.388 24.7276 179.547 24.3703 180.93 24.1601L186.258 23.3088V26.7768L181.791 27.565C181.11 27.6911 180.589 27.9118 180.228 28.2271C179.866 28.5213 179.685 28.9522 179.685 29.5197C179.685 30.0452 179.887 30.455 180.292 30.7493C180.696 31.0435 181.196 31.1907 181.791 31.1907C182.578 31.1907 183.269 31.0225 183.865 30.6862C184.461 30.3499 184.918 29.898 185.237 29.3305C185.577 28.742 185.747 28.101 185.747 27.4074V22.9305C185.747 22.2789 185.482 21.7325 184.95 21.2911C184.439 20.8497 183.737 20.629 182.844 20.629C181.993 20.629 181.238 20.8602 180.579 21.3226C179.941 21.785 179.473 22.3945 179.175 23.1512L175.346 21.3541C175.686 20.3873 176.229 19.5571 176.973 18.8635C177.718 18.1699 178.611 17.6339 179.653 17.2556C180.696 16.8773 181.834 16.6881 183.067 16.6881C184.535 16.6881 185.833 16.9508 186.96 17.4763C188.087 18.0017 188.959 18.7374 189.576 19.6832C190.214 20.608 190.533 21.6904 190.533 22.9305V34.2803H186.067V31.5059L187.151 31.3168C186.641 32.0734 186.077 32.704 185.46 33.2084C184.843 33.6918 184.152 34.0491 183.386 34.2803C182.621 34.5325 181.77 34.6587 180.834 34.6587Z" fill="#02224A"/>
<path d="M151.558 34.2803L145.559 17.0664H150.505L154.716 29.4881L152.993 29.4566L157.684 17.0664H161.831L166.49 29.4566L164.767 29.4881L168.978 17.0664H173.956L167.925 34.2803H163.778L158.928 20.9758H160.587L155.705 34.2803H151.558Z" fill="#02224A"/>
<path d="M138.675 34.2803V17.0664H143.461V34.2803H138.675ZM138.675 15.5216V10.7925H143.461V15.5216H138.675Z" fill="#02224A"/>
<path d="M117.207 40.5858V17.0664H121.674V20.3453L121.259 19.3995C121.833 18.5377 122.61 17.8756 123.588 17.4132C124.588 16.9298 125.726 16.6881 127.002 16.6881C128.661 16.6881 130.161 17.0875 131.501 17.8861C132.841 18.6848 133.905 19.7673 134.692 21.1335C135.479 22.4786 135.872 23.9919 135.872 25.6734C135.872 27.3338 135.479 28.8471 134.692 30.2133C133.926 31.5795 132.873 32.6619 131.533 33.4606C130.193 34.2593 128.672 34.6587 126.97 34.6587C125.779 34.6587 124.673 34.4485 123.652 34.0281C122.652 33.5867 121.844 32.9457 121.227 32.1049L121.993 31.1276V40.5858H117.207ZM126.396 30.4025C127.289 30.4025 128.076 30.2028 128.757 29.8035C129.438 29.4041 129.969 28.8471 130.352 28.1325C130.735 27.4179 130.927 26.5982 130.927 25.6734C130.927 24.7486 130.735 23.9394 130.352 23.2458C129.969 22.5312 129.438 21.9742 128.757 21.5748C128.076 21.1545 127.289 20.9443 126.396 20.9443C125.545 20.9443 124.779 21.144 124.099 21.5433C123.439 21.9427 122.918 22.4996 122.535 23.2143C122.174 23.9289 121.993 24.7486 121.993 25.6734C121.993 26.5982 122.174 27.4179 122.535 28.1325C122.918 28.8471 123.439 29.4041 124.099 29.8035C124.779 30.2028 125.545 30.4025 126.396 30.4025Z" fill="#02224A"/>
<path d="M95.739 40.5858V17.0664H100.206V20.3453L99.7911 19.3995C100.365 18.5377 101.142 17.8756 102.12 17.4132C103.12 16.9298 104.258 16.6881 105.534 16.6881C107.193 16.6881 108.693 17.0875 110.033 17.8861C111.373 18.6848 112.437 19.7673 113.224 21.1335C114.011 22.4786 114.404 23.9919 114.404 25.6734C114.404 27.3338 114.011 28.8471 113.224 30.2133C112.458 31.5795 111.405 32.6619 110.065 33.4606C108.725 34.2593 107.204 34.6587 105.502 34.6587C104.311 34.6587 103.205 34.4485 102.184 34.0281C101.184 33.5867 100.376 32.9457 99.7592 32.1049L100.525 31.1276V40.5858H95.739ZM104.928 30.4025C105.821 30.4025 106.608 30.2028 107.289 29.8035C107.97 29.4041 108.501 28.8471 108.884 28.1325C109.267 27.4179 109.459 26.5982 109.459 25.6734C109.459 24.7486 109.267 23.9394 108.884 23.2458C108.501 22.5312 107.97 21.9742 107.289 21.5748C106.608 21.1545 105.821 20.9443 104.928 20.9443C104.077 20.9443 103.311 21.144 102.631 21.5433C101.971 21.9427 101.45 22.4996 101.067 23.2143C100.706 23.9289 100.525 24.7486 100.525 25.6734C100.525 26.5982 100.706 27.4179 101.067 28.1325C101.45 28.8471 101.971 29.4041 102.631 29.8035C103.311 30.2028 104.077 30.4025 104.928 30.4025Z" fill="#02224A"/>
<path d="M79.9796 34.6587C78.1929 34.6587 76.5338 34.3539 75.0023 33.7444C73.4708 33.1348 72.1307 32.2836 70.9821 31.1907C69.8547 30.0767 68.972 28.7841 68.3339 27.3128C67.6958 25.8415 67.3767 24.2441 67.3767 22.5207C67.3767 20.7972 67.6851 19.1998 68.302 17.7285C68.9401 16.2572 69.8228 14.9751 70.9502 13.8822C72.0988 12.7892 73.4389 11.938 74.9704 11.3285C76.5018 10.7189 78.1716 10.4142 79.9796 10.4142C81.7876 10.4142 83.4574 10.7189 84.9889 11.3285C86.5204 11.938 87.8498 12.7892 88.9771 13.8822C90.1257 14.9751 91.0085 16.2572 91.6253 17.7285C92.2634 19.1998 92.5825 20.7972 92.5825 22.5207C92.5825 24.2441 92.2634 25.8415 91.6253 27.3128C90.9872 28.7841 90.0938 30.0767 88.9452 31.1907C87.8179 32.2836 86.4884 33.1348 84.957 33.7444C83.4255 34.3539 81.7663 34.6587 79.9796 34.6587ZM79.9796 30.2448C81.0644 30.2448 82.0641 30.0557 82.9788 29.6773C83.9147 29.299 84.7336 28.7736 85.4355 28.101C86.1375 27.4074 86.6799 26.5877 87.0628 25.6419C87.4456 24.696 87.6371 23.6556 87.6371 22.5207C87.6371 21.3857 87.4456 20.3558 87.0628 19.431C86.6799 18.4852 86.1375 17.6655 85.4355 16.9719C84.7336 16.2783 83.9147 15.7528 82.9788 15.3955C82.0641 15.0172 81.0644 14.828 79.9796 14.828C78.8948 14.828 77.8844 15.0172 76.9485 15.3955C76.0339 15.7528 75.2256 16.2783 74.5237 16.9719C73.8217 17.6655 73.2793 18.4852 72.8965 19.431C72.5136 20.3558 72.3222 21.3857 72.3222 22.5207C72.3222 23.6556 72.5136 24.696 72.8965 25.6419C73.2793 26.5877 73.8217 27.4074 74.5237 28.101C75.2256 28.7736 76.0339 29.299 76.9485 29.6773C77.8844 30.0557 78.8948 30.2448 79.9796 30.2448Z" fill="#02224A"/>
<defs>
<linearGradient id="paint0_linear_11503_7380" x1="9.0392" y1="7.96739" x2="46.6391" y2="44.4461" gradientUnits="userSpaceOnUse">
<stop stop-color="#2FD0DE"/>
<stop offset="0.51" stop-color="#7684ED"/>
<stop offset="1" stop-color="#CA24FD"/>
</linearGradient>
<linearGradient id="paint1_linear_11503_7380" x1="9.0392" y1="7.96739" x2="46.6391" y2="44.4461" gradientUnits="userSpaceOnUse">
<stop stop-color="#2FD0DE"/>
<stop offset="0.51" stop-color="#7684ED"/>
<stop offset="1" stop-color="#CA24FD"/>
</linearGradient>
<linearGradient id="paint2_linear_11503_7380" x1="9.0392" y1="7.96739" x2="46.6391" y2="44.4461" gradientUnits="userSpaceOnUse">
<stop stop-color="#2FD0DE"/>
<stop offset="0.51" stop-color="#7684ED"/>
<stop offset="1" stop-color="#CA24FD"/>
</linearGradient>
<linearGradient id="paint3_linear_11503_7380" x1="9.0392" y1="7.96739" x2="46.6391" y2="44.4461" gradientUnits="userSpaceOnUse">
<stop stop-color="#2FD0DE"/>
<stop offset="0.51" stop-color="#7684ED"/>
<stop offset="1" stop-color="#CA24FD"/>
</linearGradient>
</defs>
</svg>
